<?xml version="1.0" encoding="utf-8"?>
<!-- Generator: Adobe Illustrator 25.0.0, SVG Export Plug-In . SVG Version: 6.00 Build 0)  -->
<svg version="1.1" id="Слой_1" xmlns="http://www.w3.org/2000/svg" xmlns:xlink="http://www.w3.org/1999/xlink" x="0px" y="0px"
	 viewBox="0 0 335.6 107.4" style="enable-background:new 0 0 335.6 107.4;" xml:space="preserve">
<style type="text/css">
	.st0{fill-rule:evenodd;clip-rule:evenodd;fill:#FFFFFF;}
</style>
<polygon class="st0" points="157.5,11.2 185.7,11.2 176.9,20 176.9,21.4 181.1,21.4 196.2,10.9 189.4,2.5 179.3,2.5 177,0 
	172.5,2.3 152.3,2.5 155.1,6.8 162.6,6.8 157.3,9.8 "/>
<polygon class="st0" points="148,2.2 155,11.1 147.8,20.8 196.1,39.7 182.3,58.6 175,49.5 182.6,39.8 133.8,21.3 "/>
<polygon class="st0" points="175,54 178.3,58.6 157.7,58.6 152.6,61.1 150.2,58.5 140.9,58.5 133.9,49.8 149.6,39.6 154,39.6 
	144.4,49.5 172,49.5 172.8,51.4 167.8,53.9 "/>
<path class="st0" d="M0,78.8V107h25.2l5.5-7.5L26.3,93l4.1-6.1l-5.3-8.3L0,78.8L0,78.8z M3.8,94.8h19.7l2.8,4l-2.8,4.4H3.8V94.8
	L3.8,94.8z M3.8,82.7h19.7l2.8,4L23.5,91H3.8V82.7L3.8,82.7z"/>
<polygon class="st0" points="37.8,78.8 37.8,103.2 56.4,103.2 54.2,107 34,107 34,84.2 "/>
<path class="st0" d="M63,107.2h-4.6h-0.3l19.7-30l20.3,30h-5.3l-5.4-8H68.5L63,107.2L63,107.2z M77.9,84.4l3.7,5.5l3.7,5.5h-7.4
	h-7.4l3.7-5.5L77.9,84.4L77.9,84.4z"/>
<polygon class="st0" points="122.7,78.8 120.3,83.2 104.3,83.2 97.3,93.2 104.3,103 120.3,103 122.7,107.3 101.8,107.3 92.3,93.2 
	101.8,78.8 "/>
<polygon class="st0" points="126.4,78.8 130.8,78.8 130.8,88.5 147.4,78.7 155.2,78.7 131.1,92.9 131.1,93.2 155.2,107.4 
	147.4,107.4 130.8,97.5 130.8,107.3 126.4,107.3 126.2,107.3 126.2,93.8 126.2,92.2 126.2,78.8 "/>
<polygon class="st0" points="174.6,78.7 194.6,78.7 198.2,83.8 195.8,87.5 192.5,83 177,83 175.3,85.2 198.2,98.8 192.8,107.4 
	173.1,107.4 169.3,102.2 172.2,98.5 175.1,103.2 190.4,103.2 192.4,100.4 169.8,86.9 "/>
<polygon class="st0" points="201.2,84.8 201.2,107.2 205.7,107.2 205.7,95.2 225.8,95.2 225.7,106.9 230,101.8 230,79 225.6,79 
	225.6,91 205.4,91 205.4,78.7 "/>
<path class="st0" d="M234.7,107.2h-4.6h-0.3l19.7-30l20.3,30h-5.3l-5.4-8h-18.8L234.7,107.2L234.7,107.2z M249.6,84.4l3.7,5.5
	l3.7,5.5h-7.4h-7.4l3.7-5.5L249.6,84.4L249.6,84.4z"/>
<path class="st0" d="M272.9,78.8v28.3h3.8V95.9l19.2,11.1h8l-21.6-12.3h16l5.3-7.6l-5.3-8.3H272.9L272.9,78.8z M276.7,82.8h19.7
	l2.5,4l-2.5,4.3h-19.7V82.8L276.7,82.8z"/>
<polyline class="st0" points="335.6,107.4 327.7,107.4 311.2,97.5 311.2,107.3 306.8,107.3 306.5,107.3 306.5,93.8 306.5,92.2 
	306.5,78.8 306.8,78.8 311.2,78.8 311.2,88.5 327.7,78.7 335.6,78.7 "/>
<polyline class="st0" points="335.6,78.7 311.4,92.9 311.4,93.2 335.6,107.4 "/>
</svg>
