<?xml version="1.0" encoding="utf-8"?>
<!-- Generator: Adobe Illustrator 25.0.0, SVG Export Plug-In . SVG Version: 6.00 Build 0)  -->
<svg version="1.1" id="Слой_1" xmlns="http://www.w3.org/2000/svg" xmlns:xlink="http://www.w3.org/1999/xlink" x="0px" y="0px"
	 viewBox="0 0 335.6 104.7" style="enable-background:new 0 0 335.6 104.7;" xml:space="preserve">
<style type="text/css">
	.st0{fill-rule:evenodd;clip-rule:evenodd;fill:#FFFFFF;}
</style>
<path class="st0" d="M0,76v28.3h25.2l5.5-7.5l-4.4-6.5l4.1-6.1l-5.3-8.3L0,76L0,76z M3.8,92.1h19.7l2.8,4l-2.8,4.4H3.8V92.1
	L3.8,92.1z M3.8,79.9h19.7l2.8,4l-2.8,4.4H3.8V79.9L3.8,79.9z"/>
<polygon class="st0" points="37.8,76.1 37.8,100.5 56.4,100.5 54.2,104.3 34,104.3 34,81.4 "/>
<path class="st0" d="M63,104.5h-4.6h-0.3l19.7-30l20.3,30h-5.3l-5.4-8H68.5L63,104.5L63,104.5z M77.9,81.7l3.7,5.5l3.7,5.5h-7.4
	h-7.4l3.7-5.5L77.9,81.7L77.9,81.7z"/>
<polygon class="st0" points="122.7,76.1 120.3,80.5 104.3,80.5 97.3,90.4 104.3,100.3 120.3,100.3 122.7,104.6 101.8,104.6 
	92.3,90.4 101.8,76.1 "/>
<polygon class="st0" points="126.4,76 130.8,76 130.8,85.8 147.4,75.9 155.2,75.9 131.1,90.2 131.1,90.4 155.2,104.7 147.4,104.7 
	130.8,94.8 130.8,104.6 126.4,104.6 126.2,104.6 126.2,91.1 126.2,89.5 126.2,76 "/>
<polygon class="st0" points="174.6,75.9 194.6,75.9 198.2,81.1 195.8,84.8 192.5,80.3 177,80.3 175.3,82.5 198.2,96.1 192.8,104.7 
	173.1,104.7 169.3,99.4 172.2,95.8 175.1,100.4 190.4,100.4 192.4,97.7 169.8,84.2 "/>
<polygon class="st0" points="201.2,82.1 201.2,104.5 205.7,104.5 205.7,92.4 225.8,92.4 225.7,104.2 230,99.1 230,76.3 225.6,76.3 
	225.6,88.3 205.4,88.3 205.4,75.9 "/>
<path class="st0" d="M234.7,104.5h-4.6h-0.3l19.7-30l20.3,30h-5.3l-5.4-8h-18.8L234.7,104.5L234.7,104.5z M249.6,81.7l3.7,5.5
	l3.7,5.5h-7.4h-7.4l3.7-5.5L249.6,81.7L249.6,81.7z"/>
<path class="st0" d="M272.9,76.1v28.3h3.8V93.2l19.2,11.1h8L282.3,92h16l5.3-7.6l-5.3-8.3H272.9L272.9,76.1z M276.7,80h19.7l2.5,4
	l-2.5,4.3h-19.7V80L276.7,80z"/>
<polygon class="st0" points="306.8,76 311.2,76 311.2,85.8 327.7,75.9 335.6,75.9 311.4,90.2 311.4,90.4 335.6,104.7 327.7,104.7 
	311.2,94.8 311.2,104.6 306.8,104.6 306.5,104.6 306.5,91.1 306.5,89.5 306.5,76 "/>
<polygon class="st0" points="160.3,11.2 188.5,11.2 179.7,20 179.7,21.4 183.9,21.4 199,10.9 192.2,2.5 182.1,2.5 179.8,0 
	175.3,2.3 155.1,2.5 157.9,6.8 165.4,6.8 160.1,9.8 "/>
<polygon class="st0" points="150.8,2.2 157.8,11.1 150.6,20.8 198.9,39.7 185.1,58.6 177.8,49.5 185.4,39.8 136.6,21.3 "/>
<polygon class="st0" points="177.8,54 181.1,58.6 160.5,58.6 155.4,61.1 153,58.5 143.7,58.5 136.7,49.8 152.4,39.6 156.8,39.6 
	147.2,49.5 174.8,49.5 175.6,51.4 170.6,53.9 "/>
</svg>
