<?xml version="1.0" encoding="utf-8"?>
<!-- Generator: Adobe Illustrator 25.0.0, SVG Export Plug-In . SVG Version: 6.00 Build 0)  -->
<svg version="1.1" id="Слой_1" xmlns="http://www.w3.org/2000/svg" xmlns:xlink="http://www.w3.org/1999/xlink" x="0px"
	y="0px" viewBox="0 0 101 76.1" style="enable-background:new 0 0 101 76.1;" xml:space="preserve">
	<style type="text/css">
		.st0 {
			fill: #fff;
		}
	</style>
	<path id="path4252_1_" class="st0"
		d="M43.1,0c-1.3,0.1-5,0.9-5,0.9h0C29.9,3.1,28,10.5,28,10.5c-0.4,1.3-0.6,2.5-0.6,3.7v1.6
	c0.1,2.5,0.7,4.4,0.7,4.4c2.7,12.2,16.2,32.2,19.1,36.4c0.2,0.2,0.4,0.1,0.4,0.1c0.3-0.1,0.3-0.4,0.3-0.4l0,0
	C52.3,11.8,43.1,0,43.1,0L43.1,0z M57.9,0c0,0-9.2,11.8-4.7,56.5h0c0,0.3,0.2,0.3,0.2,0.3c0.3,0.1,0.5-0.2,0.5-0.2l0,0
	c3-4.3,16.4-24.2,19.1-36.3c0,0,1.5-5.9,0.1-9.8c0,0-2-7.6-10.3-9.6C62.8,1,60.4,0.4,57.9,0L57.9,0z M15.5,13.4
	c0,0-7.8,7.4-8.2,15.3h0v1.2c0,0.1,0,0.2,0,0.3c0.3,6.4,5.1,10.1,5.1,10.1c7.7,7.5,26.3,17,30.7,19.1c0.1,0,0.3,0.1,0.4-0.1
	c0,0,0.1-0.1,0.1-0.1V59c0,0,0,0,0,0h0C31.7,33.1,15.5,13.4,15.5,13.4L15.5,13.4z M85.5,13.4c0,0-16.2,19.6-28,45.5l0,0
	c0,0-0.1,0.3,0.1,0.5c0,0,0.1,0.1,0.2,0.1h0.2c0,0,0.1,0,0.1,0v0c4.5-2.2,23-11.6,30.6-19.1c0,0,4.9-3.9,5.1-10.2
	C94.3,21.5,85.5,13.4,85.5,13.4L85.5,13.4z M100.1,39.1c0,0-26.4,14.2-40,23.4l0,0l0,0c0,0-0.2,0.2-0.2,0.5c0,0,0.1,0.2,0.3,0.2v0
	c4.9,0,23.4,0,23.8-0.1c0,0,2.4-0.1,5.3-1.2c0,0,6.6-2.1,10-9.6c0,0,1.6-3.1,1.6-7.5v-0.2C101,43,100.7,41.1,100.1,39.1L100.1,39.1z
	 M0.9,39.2c-2.4,7.4,0.8,13.4,0.8,13.4c3.4,7.1,9.8,9.3,9.8,9.3c3,1.2,5.9,1.3,5.9,1.3c0.5,0.1,18.5,0,23.3,0c0.2,0,0.3-0.2,0.3-0.2
	c0,0,0,0,0-0.1v-0.2c0-0.1-0.1-0.2-0.1-0.2l0,0C27.3,53.3,0.9,39.2,0.9,39.2L0.9,39.2z M40.2,65.5l-31,1.1c3.4,6,9,10.7,14.9,9.2
	c4.1-1,13.3-7.5,16.4-9.6l0,0c0.2-0.2,0.2-0.4,0.2-0.4C40.5,65.5,40.2,65.5,40.2,65.5L40.2,65.5z M60.7,65.5L60.7,65.5
	c0,0-0.3,0-0.4,0.3c0,0-0.1,0.3,0.1,0.4l0,0c3,2.1,12,8.4,16.3,9.7c0,0,0.7,0.2,1.8,0.3h0.7c2.9-0.1,8-1.6,12.6-9.5L60.7,65.5z" />
</svg>