<?xml version="1.0" encoding="utf-8"?>
<!-- Generator: Adobe Illustrator 25.0.0, SVG Export Plug-In . SVG Version: 6.00 Build 0)  -->
<svg version="1.1" id="Слой_1" xmlns="http://www.w3.org/2000/svg" xmlns:xlink="http://www.w3.org/1999/xlink" x="0px"
	y="0px" viewBox="0 0 99.6 17" style="enable-background:new 0 0 99.6 17;" xml:space="preserve">
	<style type="text/css">
		.st0 {
			fill: #fff;
		}
	</style>
	<path id="path4250" class="st0" d="M30.2,0v9.6c0,2.7-1.4,4.2-3.8,4.2c-2.5,0-3.8-1.5-3.8-4.3V0h-3.4v9.6c0,4.7,2.6,7.4,7.2,7.4
	c4.6,0,7.3-2.8,7.3-7.6V0L30.2,0z M42.8,0l-7.4,16.8h3.5l1.4-3.2l0.1-0.2H48l1.5,3.5h3.6L45.8,0.1L45.7,0L42.8,0z M63,0l-3.8,11.5
	L55.5,0h-3.6l5.8,16.8h2.8l3.8-11l3.8,11H71L76.8,0h-3.5l-3.7,11.5L65.7,0H63z M96.3,0v16.7h3.4V0H96.3z M0,0v16.8h3.4V10h7.7v6.8
	h3.4V0h-3.4v6.8H3.4V0H0z M79.5,0v16.7h12.7v-3.1h-9.3V9.6h6.2V6.5h-6.2V3.1h9V0L79.5,0z M44.2,4.2l2.4,5.6h0l0.2,0.4h-5.1l0.2-0.4
	h0L44.2,4.2z" />
</svg>