<?xml version="1.0" encoding="utf-8"?>
<!-- Generator: Adobe Illustrator 25.0.0, SVG Export Plug-In . SVG Version: 6.00 Build 0)  -->
<svg version="1.1" id="Слой_1" xmlns="http://www.w3.org/2000/svg" xmlns:xlink="http://www.w3.org/1999/xlink" x="0px" y="0px"
	 viewBox="0 0 66.1 15.6" style="enable-background:new 0 0 66.1 15.6;" xml:space="preserve">
<style type="text/css">
	.st0{fill:#FFFFFF;}
</style>
<g id="pc-logo黑">
	<path id="IQOO-LOGO-黄" class="st0" d="M0,2.5V0h2.6v2.5H0z M0,15.4V5.1h2.6v10.3H0z M15.8,2.5c-3,0-5.4,2.3-5.4,5.2
		c0,2.9,2.4,5.2,5.4,5.2v2.5c-4.4,0-8-3.4-8-7.7s3.6-7.7,8-7.7c4.4,0,8,3.4,8,7.7h-2.6C21.2,4.8,18.8,2.5,15.8,2.5z M31.6,7.7
		c0,2.9,2.4,5.2,5.4,5.2c3,0,5.4-2.3,5.4-5.2c0-2.9-2.4-5.2-5.4-5.2C34,2.5,31.6,4.8,31.6,7.7z M29,7.7C29,3.4,32.6,0,37,0
		s8,3.4,8,7.7c0,4.3-3.6,7.7-8,7.7S29,12,29,7.7z M52.8,7.7c0,2.9,2.4,5.2,5.4,5.2s5.4-2.3,5.4-5.2c0-2.9-2.4-5.2-5.4-5.2
		S52.8,4.8,52.8,7.7z M58.1,0c4,0,7.3,2.8,7.9,6.5c0.1,0.4,0.1,0.8,0.1,1.2c0,4.3-3.6,7.7-8,7.7s-8-3.4-8-7.7
		C50.1,3.4,53.7,0,58.1,0z M15.6,9.3l1.9-1.8l6.5,6.3l-1.9,1.8L15.6,9.3z"/>
</g>
</svg>
