<?xml version="1.0" encoding="utf-8"?>
<!-- Generator: Adobe Illustrator 25.0.0, SVG Export Plug-In . SVG Version: 6.00 Build 0)  -->
<svg version="1.1" id="Слой_1" xmlns="http://www.w3.org/2000/svg" xmlns:xlink="http://www.w3.org/1999/xlink" x="0px"
	y="0px" viewBox="0 0 601.4 554.8" style="enable-background:new 0 0 601.4 554.8;" xml:space="preserve">
	<style type="text/css">
		.st0 {
			fill: #fff;
		}
	</style>
	<path class="st0" d="M299.6,433.2L299.6,433.2L169.1,0L0,554.7h31.7c0,0,21.4-96.5,56-154.1c18.9-31.2,48-56.8,86.9-56.1
	c27.4,0.5,51.1,15.5,80.8,56.9c17.8,24.9,45.3,88.2,45.3,88.2s27.4-63.2,45.3-88.2c29.5-41.4,53.3-56.4,80.7-56.9
	c38.8-0.7,68,24.9,86.9,56.2c34.7,57.6,56,154.1,56,154.1h31.8L432.2,0L301.6,433.2l-0.9,0.8L299.6,433.2" />
</svg>