<?xml version="1.0" encoding="utf-8"?>
<!-- Generator: Adobe Illustrator 25.0.0, SVG Export Plug-In . SVG Version: 6.00 Build 0)  -->
<svg version="1.1" id="Слой_1" xmlns="http://www.w3.org/2000/svg" xmlns:xlink="http://www.w3.org/1999/xlink" x="0px"
	y="0px" viewBox="0 0 574.7 101.2" style="enable-background:new 0 0 574.7 101.2;" xml:space="preserve">
	<style type="text/css">
		.st0 {
			fill: #fff;
		}
	</style>
	<path id="path4" class="st0" d="M287.9,84.2c-13.7,0-24.9-11.1-24.9-24.9c0-13.7,11.1-24.9,24.9-24.9c13.7,0,24.9,11.1,24.9,24.9
	C312.7,73.2,301.4,84.2,287.9,84.2 M287.9,19.7c-21.9,0-39.6,17.7-39.6,39.6c0,21.9,17.7,39.6,39.6,39.6s39.6-17.7,39.6-39.6
	C327.5,37.6,309.8,19.7,287.9,19.7" />
	<path id="path6" class="st0" d="M239.4,86.2h3.2v14.9h-3.2c-17.1,0-31-14-31-31V2h14.9v19.9h19.2v14.9h-19.2v33.4
	C223.3,79,230.5,86.2,239.4,86.2" />
	<path id="path8" class="st0" d="M421,84.2c-13.7,0-24.9-11.1-24.9-24.9c0-13.7,11.1-24.9,24.9-24.9c13.7,0,24.9,11.1,24.9,24.9
	C445.7,73.2,434.6,84.2,421,84.2 M421,19.7c-21.9,0-39.6,17.7-39.6,39.6c0,21.9,17.7,39.6,39.6,39.6c21.9,0,39.6-17.7,39.6-39.6
	C460.6,37.6,442.9,19.7,421,19.7" />
	<path id="path10" class="st0" d="M535,84.2c-13.7,0-24.9-11.1-24.9-24.9c0-13.7,11.1-24.9,24.9-24.9c13.7,0,24.9,11.1,24.9,24.9
	C559.9,73.2,548.6,84.2,535,84.2 M535,19.7c-21.9,0-39.6,17.7-39.6,39.6c0,21.9,17.7,39.6,39.6,39.6c9.7,0,18.5-3.5,25.4-9.3v7.8
	h14.2V60.6c0-0.4,0-0.8,0-1.2C574.7,37.6,556.9,19.7,535,19.7" />
	<path id="path12" class="st0" d="M368.5,19.7h7.1v14.9h-7.1c-8.9,0-16.1,7.3-16.1,16.1v9.7v18.4v19.2h-14.9V50.8
	C337.4,33.7,351.4,19.7,368.5,19.7" />
	<rect id="rect14" x="470.6" class="st0" width="14.9" height="97.8" />
	<path id="path16" class="st0" d="M109.2,52.8v47.2H94.3V52.8c0-8.9-7.3-16.1-16.1-16.1s-16.1,7.3-16.1,16.1v47.2H47.2V52.8
	c0-8.9-7.3-16.1-16.1-16.1s-16.1,7.3-16.1,16.1v47.2H0V52.8c0-17.1,14-31,30.9-31c9.5,0,17.9,4.2,23.6,10.9
	c5.8-6.7,14.1-10.9,23.6-10.9C95.2,21.8,109.2,35.7,109.2,52.8" />
	<path id="path18" class="st0" d="M158.9,86.2c-13.7,0-24.9-11.1-24.9-24.9c0-13.7,11.1-24.9,24.9-24.9c13.7,0,24.9,11.1,24.9,24.9
	S172.5,86.2,158.9,86.2 M158.9,21.8c-22,0-39.8,17.7-39.8,39.6c0,21.9,17.7,39.6,39.6,39.6s39.6-17.7,39.6-39.6
	C198.5,39.6,180.8,21.8,158.9,21.8" />
</svg>