<?xml version="1.0" encoding="utf-8"?>
<!-- Generator: Adobe Illustrator 25.0.0, SVG Export Plug-In . SVG Version: 6.00 Build 0)  -->
<svg version="1.1" id="Слой_1" xmlns="http://www.w3.org/2000/svg" xmlns:xlink="http://www.w3.org/1999/xlink" x="0px" y="0px"
	 viewBox="0 0 229.1 229.1" style="enable-background:new 0 0 229.1 229.1;" xml:space="preserve">
<style type="text/css">
	.st0{fill:#FFFFFF;}
</style>
<path id="path22" class="st0" d="M148.9,28.2l-34,112.7l-0.2,0.2l-0.3-0.2l-34-112.7L36.5,172.4h8.2c0,0,5.5-25.1,14.5-40.1
	c5-8.2,12.5-14.9,22.5-14.7c7.2,0.2,13.3,4.1,21,14.9c1.7,2.4,3.8,6.3,5.8,10.1c3.2,6.3,6,12.8,6,12.8s7.2-16.4,11.8-22.9
	c7.7-10.8,13.8-14.7,21-14.9c10.1-0.2,17.8,6.5,22.5,14.7c9,15,14.5,40.1,14.5,40.1h8.2L148.9,28.2z"/>
<g>
	<path class="st0" d="M114.5,3c29.8,0,57.8,11.6,78.9,32.7c21.1,21.1,32.7,49.1,32.7,78.9s-11.6,57.8-32.7,78.9
		c-21.1,21.1-49.1,32.7-78.9,32.7s-57.8-11.6-78.9-32.7C14.6,172.3,3,144.3,3,114.5c0-29.8,11.6-57.8,32.7-78.9
		C56.7,14.6,84.7,3,114.5,3 M114.5,0C51.3,0,0,51.3,0,114.5s51.3,114.5,114.5,114.5s114.5-51.3,114.5-114.5S177.8,0,114.5,0L114.5,0
		z"/>
</g>
</svg>
