<?xml version="1.0" encoding="utf-8"?>
<!-- Generator: Adobe Illustrator 25.0.0, SVG Export Plug-In . SVG Version: 6.00 Build 0)  -->
<svg version="1.1" id="Слой_1" xmlns="http://www.w3.org/2000/svg" xmlns:xlink="http://www.w3.org/1999/xlink" x="0px"
	y="0px" viewBox="0 0 366.9 366.9" style="enable-background:new 0 0 366.9 366.9;" xml:space="preserve">
	<style type="text/css">
		.st0 {
			fill: #2196E6;
		}

		.st1 {
			fill: #B2B2B2;
		}
	</style>
	<g>
		<path class="st0" d="M316.9,145.7v171.2H145.7V145.7H316.9 M346.9,95.7H115.7c-11,0-20,9-20,20v231.2c0,11,9,20,20,20h231.2
		c11,0,20-9,20-20V115.7C366.9,104.7,357.9,95.7,346.9,95.7L346.9,95.7z" />
	</g>
	<g>
		<path class="st1" d="M221.2,50v171.2H50V50H221.2 M251.2,0H20C9,0,0,9,0,20v231.2c0,11,9,20,20,20h231.2c11,0,20-9,20-20V20
		C271.2,9,262.2,0,251.2,0L251.2,0z" />
	</g>
	<g>
		<polygon class="st0" points="145.7,211.5 95.7,211.5 95.7,281.5 145.7,281.5 145.7,211.5 	" />
	</g>
</svg>