<?xml version="1.0" encoding="utf-8"?>
<!-- Generator: Adobe Illustrator 25.0.0, SVG Export Plug-In . SVG Version: 6.00 Build 0)  -->
<svg version="1.1" id="Слой_1" xmlns="http://www.w3.org/2000/svg" xmlns:xlink="http://www.w3.org/1999/xlink" x="0px" y="0px"
	 viewBox="0 0 319.2 95.4" style="enable-background:new 0 0 319.2 95.4;" xml:space="preserve">
<style type="text/css">
	.st0{fill-rule:evenodd;clip-rule:evenodd;fill:#FFFFFF;}
</style>
<g>
	<g>
		<path class="st0" d="M281.8,95.4c-12.3,0-37.4-3.1-37.4-47.7C244.4,3.1,269.5,0,281.8,0s37.4,3.1,37.4,47.7
			C319.2,92.3,294.1,95.4,281.8,95.4 M281.8,14.7c-14,0-16,13-16,33c0,19.7,2,33,16,33c14,0,16-13.4,16-33
			C297.8,28.3,295.8,14.7,281.8,14.7 M231,18.1c-0.3,0.9-1.3,1.4-2.2,1.1c-2.6-0.7-8.1-2-13.8-2c-17.4,0-23.3,13.2-23.3,30.5
			c0,17.3,5.9,30.7,23.3,30.7c5.7,0,11.2-1.3,13.8-2c0.9-0.3,1.9,0.2,2.2,1.1l4,10c0.4,0.9,0,1.9-0.9,2.3
			c-3.5,1.7-12.8,5.6-24.3,5.6c-31.1,0-39.4-23.4-39.4-47.7c0-24.2,8.3-47.7,39.4-47.7c11.5,0,20.8,3.9,24.3,5.6
			c0.9,0.4,1.2,1.4,0.9,2.3L231,18.1z M119.6,95.4c-12.3,0-37.4-3.1-37.4-47.7C82.2,3.1,107.3,0,119.6,0C131.9,0,157,3.1,157,47.7
			C157,92.3,131.9,95.4,119.6,95.4 M119.6,14.7c-14,0-16,13-16,33c0,19.7,2,33,16,33s16-13.4,16-33
			C135.6,28.3,133.6,14.7,119.6,14.7 M38.1,61c-8.1,0-12.4-0.1-14.7-0.2c-1.2-0.1-2.1,0.9-2.1,2l0,30c0,1.4-1.1,2.5-2.5,2.5H2.5
			c-1.4,0-2.5-1.1-2.5-2.5V3.3c0-1.2,1-2.2,2.2-2.3c0,0,21-0.8,35.8-1.1C57.4-0.4,69,13,69,30.5C69,48.1,57.4,61,38.1,61 M32.4,15.6
			c-4.8,0-7.6,0.1-9.2,0.1c-1.1,0-2,0.9-2,2v25.7c0,1.1,0.9,2,2,2c1.6,0,4.4,0.1,9.2,0.1c11.7,0,18.2-4.7,18.2-15
			S44.1,15.6,32.4,15.6"/>
	</g>
</g>
</svg>
