<?xml version="1.0" encoding="utf-8"?>
<!-- Generator: Adobe Illustrator 25.0.0, SVG Export Plug-In . SVG Version: 6.00 Build 0)  -->
<svg version="1.1" id="Livello_1" xmlns="http://www.w3.org/2000/svg" xmlns:xlink="http://www.w3.org/1999/xlink" x="0px" y="0px"
	 viewBox="0 0 3500.8 535.7" style="enable-background:new 0 0 3500.8 535.7;" xml:space="preserve">
<style type="text/css">
	.st0{fill:#FFFFFF;}
</style>
<g>
	<g>
		<g>
			<g>
				<polygon class="st0" points="2897.5,408.5 2890.7,15.8 3014.5,15.8 3014.5,510.8 2836.5,510.8 2712.9,104.6 2710.2,104.6 
					2717.1,510.8 2594,510.8 2594,15.8 2779.8,15.8 2894.8,408.5 				"/>
				<polygon class="st0" points="646.5,62.2 578,516 442.9,516 535.6,15.8 758.1,15.8 850.5,516 715.9,516 649.3,62.2 				"/>
				<polygon class="st0" points="1229.8,398.2 1291.6,15.8 1495.6,15.8 1506.4,516 1381.4,516 1378.1,66.3 1375.5,66.3 1291.9,516 
					1165,516 1081.3,66.3 1078.6,66.3 1075.5,516 950.2,516 961.3,15.8 1165.4,15.8 1227.1,398.2 				"/>
				<path class="st0" d="M232.3,374.9c4.9,12.1,3.4,27.7,1.1,37.1c-4.2,16.6-15.5,33.6-48.7,33.6c-31.4,0-50.4-18-50.4-45.4v-48.4
					H0.1L0,390.5C0,502,87.8,535.7,181.9,535.7c90.5,0,165-30.9,176.8-114.3c6.1-43.2,1.5-71.5-0.5-82.2
					c-21.1-104.7-211-136-225.1-194.5c-2.4-10-1.7-20.7-0.5-26.4c3.5-15.9,14.4-33.5,45.7-33.5c29.2,0,46.5,18.1,46.5,45.4
					c0,9.2,0,30.9,0,30.9h124.7V126c0-109-97.8-126-168.6-126c-89,0-161.7,29.4-175,110.8c-3.6,22.5-4.1,42.5,1.1,67.6
					C28.9,280.5,206.5,310.1,232.3,374.9z"/>
				<path class="st0" d="M1858.8,374c4.9,12,3.3,27.2,1.1,36.6c-4.1,16.6-15.3,33.3-48.3,33.3c-30.9,0-49.8-18-49.8-44.8l-0.1-48
					h-132.8l-0.2,38.2c0,110.4,87,143.7,180.1,143.7c89.5,0,163.3-30.5,175-113.1c6.1-42.9,1.8-70.8-0.4-81.3
					c-21-103.7-208.9-134.7-222.9-192.7c-2.4-10-1.7-20.5-0.5-25.9c3.6-16.1,14.3-33.2,45.3-33.2c29,0,45.9,17.6,45.9,44.8
					c0,9.1,0,30.6,0,30.6H1975v-34.8c0-107.8-97-124.7-167.2-124.7c-88,0-160.1,29-173.1,109.9c-3.6,22.2-4,41.8,1.2,66.8
					C1657.4,280.5,1833.3,309.9,1858.8,374z"/>
				<path class="st0" d="M2278.9,441.2c34.7,0,45.5-24,47.9-36.3c1-5.4,1.3-12.6,1.2-19.1V15.6h126.5v358.8
					c0.3,9.2-0.6,28.1-1.1,32.8c-8.9,93.4-82.7,123.7-174.6,123.7c-92,0-165.9-30.3-174.7-123.7c-0.4-4.7-1.3-23.7-1.1-32.8V15.6
					h126.4v370.1c0,6.5,0.2,13.8,1.2,19.1C2233.4,417.1,2243.9,441.2,2278.9,441.2z"/>
				<path class="st0" d="M3322.4,435.9c36.2,0,48.9-22.9,51.2-36.2c0.9-5.7,1.2-12.7,1.1-19v-72.6h-51.3v-73h177.4v134.3
					c-0.1,9.4-0.3,16.3-1.8,33c-8.3,91-87.3,123.5-175.9,123.5c-88.8,0-167.6-32.5-176.1-123.5c-1.4-16.7-1.6-23.6-1.8-33l0.1-210.6
					c0-8.9,1.1-24.6,2.1-33c11.1-93.5,86.9-123.6,175.7-123.6c88.7,0,166.4,29.9,175.6,123.6c1.6,15.9,1.1,33,1.1,33v16.7h-126.1
					v-28c0.1,0.1-0.2-11.9-1.6-19c-2.1-11.1-11.7-36.5-49.9-36.5c-36.5,0-47.1,24-49.8,36.5c-1.5,6.6-2.1,15.5-2.1,23.6v228.8
					c-0.1,6.3,0.3,13.3,1.3,19C3273.6,413,3286.2,435.9,3322.4,435.9z"/>
			</g>
		</g>
	</g>
</g>
</svg>
