<?xml version="1.0" encoding="utf-8"?>
<!-- Generator: Adobe Illustrator 25.0.0, SVG Export Plug-In . SVG Version: 6.00 Build 0)  -->
<svg version="1.1" id="Слой_1" xmlns="http://www.w3.org/2000/svg" xmlns:xlink="http://www.w3.org/1999/xlink" x="0px"
	y="0px" viewBox="0 0 128 76" style="enable-background:new 0 0 128 76;" xml:space="preserve">
	<path id="path4" fill="#fff" d="M125,5.1c0.9-3,0-5.1-4.2-5.1h-14c-3.6,0-5.2,1.9-6.1,4c0,0-7.1,17.4-17.2,28.6
	c-3.3,3.3-4.7,4.3-6.5,4.3c-0.9,0-2.2-1-2.2-4V5.1c0-3.6-1-5.1-4-5.1h-22c-2.2,0-3.6,1.7-3.6,3.2c0,3.4,5,4.2,5.6,13.6v20.6
	c0,4.5-0.8,5.3-2.6,5.3c-4.7,0-16.3-17.4-23.1-37.4C23.7,1.6,22.4,0,18.8,0h-14C0.8,0,0,1.9,0,4c0,3.7,4.7,22.1,22.1,46.4
	C33.7,67,50,76,64.8,76c8.9,0,10-2,10-5.4V58c0-4,0.8-4.8,3.7-4.8c2.1,0,5.6,1,13.9,9c9.5,9.5,11.1,13.8,16.4,13.8h14
	c4,0,6-2,4.8-5.9c-1.3-3.9-5.8-9.6-11.8-16.4c-3.3-3.9-8.2-8-9.6-10.1c-2.1-2.7-1.5-3.9,0-6.2C106.2,37.3,123.3,13.3,125,5.1
	L125,5.1z" />
</svg>