<?xml version="1.0" encoding="utf-8"?>
<!-- Generator: Adobe Illustrator 25.0.0, SVG Export Plug-In . SVG Version: 6.00 Build 0)  -->
<svg version="1.1" id="Слой_1" xmlns="http://www.w3.org/2000/svg" xmlns:xlink="http://www.w3.org/1999/xlink" x="0px" y="0px"
	 viewBox="0 0 306.3 195.7" style="enable-background:new 0 0 306.3 195.7;" xml:space="preserve">
<style type="text/css">
	.st0{fill:#FFFFFF;}
</style>
<g>
	<g>
		<g>
			<path class="st0" d="M303.1,0c1.8,0,3.2,1.4,3.2,3.2v189.4c0,1.7-1.5,3.1-3.2,3.1h-41.5c-1.8,0-3.2-1.4-3.2-3.1V3.2
				c0-1.7,1.4-3.2,3.2-3.2C261.6,0,303.1,0,303.1,0z M123,0c31.3,0,64,1.4,80.2,17.6c15.9,15.9,17.6,47.5,17.7,78.3v96.7
				c0,1.7-1.4,3.1-3.2,3.1h-41.5c-1.8,0-3.2-1.4-3.2-3.1V94.2c0-17.2-1-34.8-9.9-43.7c-7.6-7.6-21.8-9.4-36.6-9.8H51.2
				c-1.8,0-3.2,1.4-3.2,3.1v148.6c0,1.7-1.5,3.1-3.2,3.1H3.2c-1.8,0-3.2-1.4-3.2-3.1V3.2C0,1.4,1.4,0,3.2,0C3.2,0,123,0,123,0z
				 M132.3,75.4c1.8,0,3.2,1.4,3.2,3.1v114c0,1.7-1.4,3.1-3.2,3.1H88.7c-1.8,0-3.2-1.4-3.2-3.1v-114c0-1.7,1.4-3.1,3.2-3.1H132.3z"
				/>
		</g>
	</g>
</g>
</svg>
